# xmcd CD database file
#
# Track frame offsets:
#	150
#	17977
#	38120
#	53896
#	70119
#	87063
#	103337
#	121006
#	140961
#	158120
#	175706
#	192356
#	216821
#	238727
#
# Disc length: 3463 seconds
#
# Revision: 0
# Processed by: cddbd v1.5.2PL0 Copyright (c) Steve Scherf et al.
# Submitted via: CDex 1.70beta2
#
DISCID=c40d850e
DTITLE=Leann Rimes - Family
DYEAR=2007
DGENRE=Country
TTITLE0=Family
TTITLE1=Nothin' Better To Do
TTITLE2=Fight
TTITLE3=Good Friend And A Glass Of Win
TTITLE4=Something I Can Feel
TTITLE5=I Want You With Me
TTITLE6=Doesn't Everybody
TTITLE7=Nothing Wrong (Duet With Marc Broussard)
TTITLE8=Pretty Things
TTITLE9=Upper Hand
TTITLE10=One Day Too Long
TTITLE11=What I Cannot Change
TTITLE12=Till We Ain't Strangers Anymor
TTITLE13=Leann Rimes - When You Love Someone Like Tha
EXTD=YEAR: 2007
EXTT0=
EXTT1=
EXTT2=
EXTT3=
EXTT4=
EXTT5=
EXTT6=
EXTT7=
EXTT8=
EXTT9=
EXTT10=
EXTT11=
EXTT12=
EXTT13=
PLAYORDER=
